<svg width="1031" height="840" viewBox="0 0 1031 840" fill="none" xmlns="http://www.w3.org/2000/svg">
<g clip-path="url(#clip0_34_1227)">
<path opacity="0.1" d="M1263 601.424C1263.09 569.566 1255.51 538.154 1240.91 509.838C1226.31 481.521 1205.11 457.131 1179.09 438.724C1179.81 431.842 1180.18 424.928 1180.2 418.008C1180.2 308.593 1092.72 219.892 984.787 219.892C951.553 219.857 918.876 228.427 889.94 244.768C813.553 194.53 713.827 164.125 604.728 164.125C427.212 164.125 274.515 244.636 206.772 360.078C203.007 359.857 199.221 359.736 195.401 359.736C87.4937 359.736 -0.011022 448.436 -0.011022 557.852C-0.0876554 596.509 11.0864 634.352 32.1491 666.771C32.1491 765.217 125.097 845.011 239.705 845.011H1071.17C1161.19 845.011 1234.16 782.357 1234.16 705.057C1253.1 673.809 1263.07 637.958 1263 601.424Z" fill="#9E1919"/>
<path d="M914.77 237.142C906.445 240.652 898.099 244.172 890.349 248.808C886.827 250.905 883.449 253.222 879.827 255.132C875.93 257.207 871.79 258.774 867.683 260.451C856.35 265.079 845.343 270.47 834.739 276.587C835.656 264.722 833.922 251.832 826.823 242.583C825.78 241.213 824.621 239.935 823.357 238.765C818.334 234.107 811.213 232.904 806.278 228.832C809.281 223.556 815.949 218.766 820.486 214.738C825.388 210.404 830.474 206.295 835.744 202.41C846.277 194.635 857.492 187.827 869.251 182.07C876.714 178.417 884.509 175.15 892.745 174.035C893.782 173.802 894.867 173.898 895.847 174.311C897.127 175.018 897.591 176.607 897.9 178.031C899.435 185.149 900.219 192.455 901.499 199.629C902.127 203.316 902.979 206.961 904.05 210.544C905.426 214.782 907.014 218.948 908.808 223.026C910.803 227.728 912.79 232.433 914.77 237.142Z" fill="#FBBEBE"/>
<path d="M678.498 438.316C678.495 452.966 673.864 467.242 665.263 479.104C656.663 490.967 644.535 499.811 630.608 504.374C616.682 508.938 601.669 508.986 587.713 504.514C573.757 500.042 561.571 491.277 552.894 479.471C544.113 467.545 539.382 453.123 539.391 438.316C539.391 419.875 546.719 402.19 559.763 389.151C572.807 376.111 590.498 368.786 608.945 368.786C627.392 368.786 645.083 376.111 658.126 389.151C671.17 402.19 678.498 419.875 678.498 438.316Z" fill="#BE6F72"/>
<path d="M584.027 499.59C587.748 506.003 591.501 512.47 593.886 519.456C596.271 526.442 597.198 534.179 595.233 541.319C618.925 528.848 647.122 529.852 673.199 523.54C673.897 523.46 674.539 523.121 674.999 522.59C675.157 522.229 675.239 521.838 675.239 521.443C675.239 521.048 675.157 520.657 674.999 520.295C669.54 500.1 667.44 479.146 668.783 458.27L655.17 466.315C649.211 469.995 643.036 473.312 636.678 476.248C627.68 480.188 618.13 482.572 608.735 485.331C601.294 487.538 586.522 490.397 581.841 496.897C582.686 497.695 583.421 498.6 584.027 499.59Z" fill="#BE6F72"/>
<path d="M545.707 406.089C541.18 407.91 535.859 410.007 531.697 407.458C528.638 405.57 527.38 401.652 527.567 398.066C527.755 394.479 529.124 391.079 530.206 387.658C532.414 380.628 533.606 373.311 536.068 366.314C538.53 359.316 542.549 352.573 548.93 348.876C560.677 342.077 575.879 347.695 588.918 343.931C594.438 342.353 599.241 339.175 604.374 336.681C609.508 334.186 615.282 332.266 620.824 333.601C627.316 335.113 632.107 340.576 638.157 343.358C644.781 346.404 652.708 346.194 658.736 350.266C663.009 353.158 665.703 357.826 668.098 362.407C675.763 377.126 681.815 392.63 686.149 408.65C687.882 414.386 688.873 420.32 689.097 426.308C689.152 433.967 687.076 441.472 685.023 448.867L681.711 460.565C680.485 464.98 679.227 469.394 676.908 473.39C674.59 477.385 671.013 480.751 666.586 481.91C661.066 483.334 654.64 480.574 652.234 475.409C650.754 472.209 650.82 468.545 650.743 465.024C650.621 458.129 649.882 451.259 648.535 444.496C647.851 441.108 646.934 437.587 644.627 435.027C641.646 431.716 636.899 430.612 632.483 430.535C627.316 430.469 621.652 431.87 618.638 436.053C616.22 439.43 615.801 444.176 612.588 446.814C611.16 447.909 609.463 448.599 607.675 448.811C604.031 449.265 600.339 448.485 597.191 446.594C594.043 444.703 591.619 441.812 590.309 438.382C589.293 435.468 588.797 431.848 586.036 430.48C584.601 429.762 582.89 429.895 581.355 429.431C576.652 428.008 575.416 422.048 574.985 417.159C574.488 411.431 576.398 400.118 569.277 399.732C561.604 399.313 552.761 403.738 545.707 406.089Z" fill="#3F3D56"/>
<path d="M562.388 481.457C559.937 482.638 557.255 484.018 556.294 486.556C555.919 487.55 555.853 488.642 555.51 489.658C553.954 494.149 547.881 495.032 544.746 498.608C543.332 500.416 542.381 502.541 541.975 504.8C539.881 513.707 540.558 523.041 543.918 531.552C544.892 534.249 546.393 536.726 548.334 538.836C553.943 544.553 563.614 544.443 570.602 540.547C577.591 536.651 582.415 529.819 586.511 522.888C588.683 519.4 590.499 515.703 591.932 511.852C593.192 507.936 594.09 503.913 594.615 499.833C597.066 483.93 600.267 466.293 599.163 450.169C595.851 449.959 589.525 449.727 586.6 451.802C582.934 454.407 583.95 459.66 582.625 463.468C579.49 472.628 570.393 477.462 562.388 481.457Z" fill="#3F3D56"/>
<path d="M565.259 483.565C561.119 483.819 553.7 479.239 549.549 479.471C546.724 474.542 544.227 469.432 542.074 464.174C544.282 461.007 547.837 460.234 553.214 464.174C557.531 467.209 563.492 477.705 565.259 483.565Z" fill="#3F3D56"/>
<path d="M627.669 309.189C623.176 311.561 620.394 311.672 618.174 311.197C615.955 310.723 611.55 312.93 611.55 312.93C572.634 326.24 571.099 332.52 571.099 332.52L616.154 316.616C624.821 312.82 624.986 314.155 624.986 314.155C631.61 320.38 640.045 316.164 640.045 316.164C640.045 316.164 651.715 310.645 648.281 305.337C644.848 300.028 632.173 306.86 627.669 309.189ZM646.437 308.195C646.437 308.195 643.125 317.024 631.213 315.59C631.213 315.59 625.362 314.729 627.835 310.369C627.835 310.369 639.979 305.271 643.192 305.635C646.404 305.999 646.404 308.239 646.404 308.239L646.437 308.195Z" fill="#E8E8F0"/>
<path opacity="0.1" d="M627.669 309.189C623.176 311.561 620.394 311.672 618.174 311.197C615.955 310.723 611.55 312.93 611.55 312.93C572.634 326.24 571.099 332.52 571.099 332.52L616.154 316.616C624.821 312.82 624.986 314.155 624.986 314.155C631.61 320.38 640.045 316.164 640.045 316.164C640.045 316.164 651.715 310.645 648.281 305.337C644.848 300.028 632.173 306.86 627.669 309.189ZM646.437 308.195C646.437 308.195 643.125 317.024 631.213 315.59C631.213 315.59 625.362 314.729 627.835 310.369C627.835 310.369 639.979 305.271 643.192 305.635C646.404 305.999 646.404 308.239 646.404 308.239L646.437 308.195Z" fill="black"/>
<path d="M630.142 284.577C623.407 284.798 622.005 289.83 622.005 289.83C620.657 291.439 619.867 293.441 619.754 295.536C619.64 297.632 620.21 299.707 621.376 301.452L609.42 313.338C607.154 314.212 605.207 315.751 603.833 317.753C603.833 317.753 577.58 340.93 577.966 343.038C577.966 343.038 582.25 345.245 609.42 320.49L616.552 314.177C616.552 314.177 618.13 302.379 629.27 300.139C629.27 300.139 630.374 300.624 630.959 297.998C631.583 296.738 632.416 295.592 633.421 294.609C634.9 293.241 636.877 284.345 630.142 284.577ZM632.03 292.557C632.03 292.557 628.42 301.871 623.275 299.178C618.13 296.486 623.131 290.272 623.131 290.272C632.052 281.597 632.03 292.557 632.03 292.557Z" fill="#E8E8F0"/>
<path opacity="0.1" d="M609.651 317.974C610.438 317.974 611.076 317.336 611.076 316.55C611.076 315.764 610.438 315.126 609.651 315.126C608.865 315.126 608.227 315.764 608.227 316.55C608.227 317.336 608.865 317.974 609.651 317.974Z" fill="black"/>
<path d="M734.24 271.532C730.084 269.343 725.77 267.469 721.334 265.925C715.437 264.254 709.379 263.218 703.261 262.835C683.934 260.996 664.547 259.929 645.102 259.635C641.668 259.635 638.157 259.557 634.9 260.738C631.991 261.854 629.356 263.582 627.172 265.804C623.389 269.419 620.384 273.768 618.34 278.584C617.684 279.791 617.487 281.195 617.788 282.535C618.23 283.816 619.996 284.665 621.001 283.76C618.431 285.831 616.543 288.626 615.582 291.783C614.621 294.94 614.632 298.312 615.613 301.463C614.081 302.264 612.781 303.447 611.839 304.897C610.897 306.347 610.345 308.015 610.237 309.74C618.263 311.226 626.525 310.825 634.37 308.57C632.03 307.974 629.612 310.171 629.469 312.577C629.484 313.785 629.834 314.966 630.479 315.989C631.123 317.011 632.039 317.836 633.123 318.371C635.313 319.407 637.725 319.884 640.144 319.761C649.496 319.761 658.593 316.594 667.922 316.186C675.054 315.866 682.406 317.157 689.218 315.082C697.123 312.632 704.178 305.69 712.325 307.136C718.828 308.295 723.067 314.331 727.307 319.386C734.086 327.454 742.465 333.988 750.778 340.466C757.182 345.454 763.872 350.575 771.81 352.264C774.186 352.911 776.705 352.791 779.008 351.922C780.933 350.892 782.549 349.368 783.689 347.507C792.245 335.367 792.256 320.082 791.76 305.855C791.506 298.582 789.916 297.6 783.181 294.587C775.365 291.078 767.578 287.483 759.82 283.805C751.253 279.802 742.726 275.711 734.24 271.532Z" fill="#FBBEBE"/>
<path d="M823.721 298.77C822.405 299.556 821.015 300.211 819.57 300.724C817.152 301.297 814.69 300.271 812.339 299.476C802.402 296.165 791.362 296.949 781.757 292.855C784.907 310.928 780.784 329.513 770.286 344.561C768.299 347.386 765.683 350.277 762.238 350.498C763.773 355.211 768.498 358.058 772.98 360.177C780.138 363.564 787.626 366.204 795.326 368.057C797.534 368.576 800.227 368.83 801.508 366.954C802.281 365.85 802.612 363.963 803.97 364.029C806.046 366.236 805.361 370.761 808.232 371.755C809.126 371.982 810.064 371.982 810.959 371.755L817.362 370.651C819.283 370.485 821.133 369.848 822.749 368.797C823.762 367.918 824.597 366.854 825.211 365.662C832.388 353.445 835.148 339.307 836.252 325.346C836.793 318.415 837.466 311.065 836.991 304.112C836.55 298.152 828.91 296.353 823.721 298.77Z" fill="#E8E8F0"/>
<path opacity="0.1" d="M823.721 298.77C822.405 299.556 821.015 300.211 819.57 300.724C817.152 301.297 814.69 300.271 812.339 299.476C802.402 296.165 791.362 296.949 781.757 292.855C784.907 310.928 780.784 329.513 770.286 344.561C768.299 347.386 765.683 350.277 762.238 350.498C763.773 355.211 768.498 358.058 772.98 360.177C780.138 363.564 787.626 366.204 795.326 368.057C797.534 368.576 800.227 368.83 801.508 366.954C802.281 365.85 802.612 363.963 803.97 364.029C806.046 366.236 805.361 370.761 808.232 371.755C809.126 371.982 810.064 371.982 810.959 371.755L817.362 370.651C819.283 370.485 821.133 369.848 822.749 368.797C823.762 367.918 824.597 366.854 825.211 365.662C832.388 353.445 835.148 339.307 836.252 325.346C836.793 318.415 837.466 311.065 836.991 304.112C836.55 298.152 828.91 296.353 823.721 298.77Z" fill="black"/>
<path d="M453.62 656.761C450.474 652.722 447.239 648.44 442.58 646.31C439.896 645.227 437.07 644.536 434.189 644.257C418.656 642.05 403.089 639.754 387.412 639.324C382.289 639.18 376.791 639.324 372.618 642.315C367.838 645.725 365.994 652.005 365.729 657.865C365.444 664.843 366.83 671.789 369.772 678.124C372.714 684.459 377.126 689.999 382.643 694.285C392.027 701.437 403.884 704.428 415.454 706.79C421.537 708.037 427.654 709.152 433.792 710.101C439.93 711.05 446.179 711.8 452.108 713.699C464.782 717.76 475.966 726.942 489.258 727.704C489.883 727.8 490.522 727.692 491.08 727.395C491.663 726.924 492.055 726.257 492.184 725.519C495.109 715.2 505.255 690.489 492.184 683.271C485.35 679.508 477.765 679.342 471.075 674.563C464.384 669.784 458.699 663.284 453.62 656.761Z" fill="#BE6F72"/>
<path d="M342.015 725.265C333.414 717.782 321.546 713.82 315.297 704.296C312.548 700.102 311.157 695.179 309.777 690.345L305.714 675.755C305.401 674.859 305.259 673.912 305.295 672.963C305.604 669.917 309.192 668.471 312.217 667.996C327.673 665.591 343.77 671.815 355.34 682.344C366.91 692.873 374.34 707.397 378.701 722.451C379.008 723.216 379.055 724.062 378.834 724.857C378.456 725.563 377.86 726.129 377.134 726.468C371.547 729.779 364.04 734.602 357.515 735.617C350.99 736.633 346.663 729.26 342.015 725.265Z" fill="#BE6F72"/>
<path d="M719.347 662.357L764.612 680.468C768.906 682.185 772.441 685.387 774.571 689.492C776.701 693.596 777.284 698.329 776.215 702.828L742.531 844.459H658.317L672.978 683.326C672.978 683.326 704.995 656.839 719.347 662.357Z" fill="#3F3D56"/>
<path d="M763.066 645.361C762.227 647.193 760.991 649.003 761.178 651C761.289 652.192 761.907 653.318 761.819 654.499C761.642 656.817 758.959 658.108 756.641 658.13C754.322 658.152 751.993 657.401 749.708 657.799C745.954 658.439 743.415 661.893 740.169 663.891C735.642 666.672 729.99 666.507 724.712 666.981C713.672 667.974 703.228 672.113 693.237 676.826C686.447 680.026 679.238 684.132 676.677 691.173C673 701.106 680.132 711.569 681.711 722.075C682.134 725.613 682.238 729.181 682.02 732.737C680.861 769.841 678.862 807.377 676.743 844.437L272.053 844.912L291.98 810.003C311.411 775.956 331.361 741.268 360.673 715.233C365.021 711.309 369.905 708.024 375.179 705.477L398.684 726.446C400.566 728.317 402.749 729.858 405.143 731.004C409.559 732.803 414.505 731.776 419.241 731.931C428.349 732.229 436.673 736.875 444.578 741.411C450.376 744.557 455.953 748.093 461.271 751.995C464.384 754.379 468.878 755.869 472.124 758.065L471.362 718.444C471.284 714.869 471.229 711.204 472.3 707.794C474.376 701.172 480.304 696.493 483.153 690.191C484.444 687.355 485.074 684.264 486.156 681.362C487.685 677.63 489.586 674.062 491.83 670.711L506.481 647.182C510.102 641.376 513.712 635.571 517.642 629.976C534.832 605.464 557.972 585.83 580.483 566.13C579.96 560.515 581.257 554.882 584.182 550.06C585.335 548.455 586.291 546.717 587.03 544.884C587.507 542.711 587.645 540.477 587.439 538.262C587.439 537.699 587.439 537.159 587.439 536.563C587.683 532.954 589.192 529.546 591.7 526.939C594.283 524.257 597.739 522.624 601.139 521.101C618.737 513.233 637.033 507.033 655.788 502.581C658.78 501.875 661.949 501.213 664.897 502.107C665.791 504.987 668.838 506.003 671.885 506.731L673.839 507.184C679.014 508.301 683.841 510.656 687.904 514.048C692.177 517.779 695.114 522.767 697.973 527.678C719.468 564.573 729.371 612.979 762.625 639.787C764.236 641.056 763.905 643.595 763.066 645.361Z" fill="#9E1919"/>
<path opacity="0.1" d="M898.673 192.202C887.037 217.773 864.106 242.969 834.165 242.969C831.721 242.971 829.278 242.849 826.846 242.605C825.803 241.235 824.643 239.957 823.379 238.787C818.356 234.129 811.235 232.926 806.3 228.854C809.303 223.578 815.971 218.789 820.508 214.76C825.41 210.427 830.496 206.317 835.766 202.432C846.299 194.657 857.514 187.849 869.273 182.092C876.736 178.439 884.531 175.172 892.767 174.058C893.804 173.824 894.889 173.92 895.869 174.333C897.15 175.04 897.613 176.629 897.922 178.053C899.457 185.116 897.393 185.028 898.673 192.202Z" fill="black"/>
<path d="M834.165 240.751C875.017 240.751 908.134 207.645 908.134 166.807C908.134 125.968 875.017 92.8619 834.165 92.8619C793.313 92.8619 760.196 125.968 760.196 166.807C760.196 207.645 793.313 240.751 834.165 240.751Z" fill="#FBBEBE"/>
<path d="M988.209 412.733C987.006 421.673 984.905 430.47 981.938 438.989C980.834 442.09 979.476 445.114 978.074 448.094C969.849 465.521 965.334 484.36 963.181 503.519C963.016 505.028 962.739 506.522 962.353 507.989C960.73 514.17 957.308 519.688 954.691 525.504C952.023 531.786 949.809 538.252 948.067 544.851C947.437 546.507 947.225 548.292 947.449 550.049C947.857 551.915 949.204 553.36 950.154 555.049C955.055 563.492 949.392 573.811 947.482 583.369C946.831 586.679 946.543 590.277 944.391 592.86C942.558 595.067 939.71 596.083 937.005 597.01C898.451 610.112 858.991 620.381 818.941 627.735C812.968 628.839 806.796 629.865 800.868 628.762C794.939 627.658 789.033 623.994 787.001 618.277C785.831 614.966 786.03 611.368 786.129 607.859C786.35 600.486 786.129 593.07 785.732 585.642C784.451 561.196 781.548 536.662 787.94 513.243C789.85 506.334 792.544 499.668 794.707 492.836C798.936 479.515 800.029 465.741 801.089 451.924C801.961 440.534 802.811 429.1 805.361 417.865C807.26 409.488 806.002 400.781 805.891 392.194C805.672 372.545 811.449 353.296 822.452 337.012C824.361 334.197 826.459 331.416 827.464 328.182C828.877 323.547 827.905 318.57 827.265 313.758C825.653 301.489 826.304 289.029 829.186 276.995C830.092 272.492 831.817 268.194 834.276 264.314C837.025 260.308 840.966 257.284 844.907 254.436C867.789 237.946 893.037 225.015 919.793 216.085C922.255 222.309 924.618 229.582 926.506 235.95C926.759 236.811 926.936 237.904 926.23 238.456C925.523 239.007 924.794 238.709 924.021 238.732C923.224 238.818 922.471 239.144 921.862 239.666C921.254 240.188 920.817 240.881 920.61 241.656C920.224 243.219 920.372 244.866 921.03 246.336C922.531 250.198 925.766 253.079 928.879 255.805L944.534 269.457C946.408 271.21 948.453 272.77 950.639 274.115C952.605 275.218 954.746 276.002 956.767 277.017C964.87 281.112 970.468 289.091 973.592 297.611C976.716 306.131 975.303 316.373 979.377 324.463C992.912 351.282 992.802 383.012 988.209 412.733Z" fill="#E8E8F0"/>
<path d="M977.92 693.347C982.676 712.514 982.558 732.566 977.577 751.675C976.683 755.085 975.634 758.617 976.341 762.072C976.749 764.036 977.71 765.879 977.931 767.877C978.027 769.699 977.83 771.525 977.346 773.285C972.444 796.461 974.199 820.543 976.175 844.194C975.336 844.194 975.071 844.581 974.188 844.581H952.914C952.538 838.367 944.81 833.71 941.034 828.754C937.382 823.897 934.856 818.288 933.639 812.335C932.423 806.381 932.547 800.231 934.002 794.331C937.314 781.088 947.073 770.504 952.075 757.845C957.595 743.917 957.12 728.145 962.982 714.372C966.349 706.414 972.642 700.201 977.92 693.347Z" fill="#3F3D56"/>
<path opacity="0.1" d="M977.92 693.347C982.676 712.514 982.558 732.566 977.577 751.675C976.683 755.085 975.634 758.617 976.341 762.072C976.749 764.036 977.71 765.879 977.931 767.877C978.027 769.699 977.83 771.525 977.346 773.285C972.444 796.461 974.199 820.543 976.175 844.194C975.336 844.194 975.071 844.581 974.188 844.581H952.914C952.538 838.367 944.81 833.71 941.034 828.754C937.382 823.897 934.856 818.288 933.639 812.335C932.423 806.381 932.547 800.231 934.002 794.331C937.314 781.088 947.073 770.504 952.075 757.845C957.595 743.917 957.12 728.145 962.982 714.372C966.349 706.414 972.642 700.201 977.92 693.347Z" fill="black"/>
<path d="M933.273 587.121C915.189 584.229 897.668 593.334 880.203 598.864C853.519 607.307 824.141 607.825 799.488 621.08C797.286 622.14 795.289 623.582 793.592 625.34C791.591 627.817 790.332 630.809 789.96 633.971C788.858 640.961 790.212 648.117 793.791 654.223C795.326 656.828 797.258 659.222 798.45 662.015C801.276 668.637 799.388 676.274 798.903 683.514C797.799 699.682 804.07 715.42 805.328 731.578C806.079 741.102 805.096 750.837 807.337 760.129C808.74 765.957 811.378 771.453 812.471 777.346C813.564 783.24 813.089 789.001 813.454 794.828C814.48 811.526 822.087 827.75 820.232 844.382L963.755 844.857C958.434 826.348 954.007 807.211 958.831 788.57C960.505 782.676 962.586 776.905 965.058 771.298C973.084 751.907 981.331 732.461 985.758 711.955C990.185 691.449 990.583 669.553 983.087 649.952C974.74 628.1 956.999 609.922 953.134 586.856C946.51 585.973 939.908 588.18 933.273 587.121Z" fill="#3F3D56"/>
<path d="M782.652 130.739C781.26 127.826 777.319 125.905 774.669 127.748C772.02 129.591 772.362 133.708 771.711 137.019C770.452 143.531 763.983 147.967 757.358 149.005C754.256 149.501 750.801 149.303 748.394 147.294C746.844 145.81 745.703 143.951 745.082 141.897C738.458 124.239 742.487 103.623 753.329 88.2156C755.629 84.7632 758.483 81.7131 761.774 79.1877C770.905 72.5658 783.115 72.5658 794.409 72.919C796.703 73.1675 799.023 72.8998 801.199 72.1354C802.858 71.2627 804.376 70.1467 805.703 68.8244C816.401 59.4213 831.184 55.4702 845.448 56.0993C859.712 56.7284 873.435 61.6176 886.109 68.1181C892.17 71.2193 898.11 74.74 902.857 79.6402C914.262 91.372 917.044 108.755 919.285 124.956C921.692 142.438 924.088 160.405 920.036 177.589C917.74 187.323 913.412 196.837 913.92 206.825C904.75 209.443 895.429 211.503 886.01 212.994C881.594 213.69 876.493 214.098 873.259 210.975C871.891 209.509 870.892 207.738 870.344 205.81C866.844 195.468 868.014 183.659 862.726 174.102C860.515 170.205 857.355 166.929 853.539 164.579C849.724 162.229 845.376 160.881 840.9 160.659C837.433 160.538 833.492 161.388 831.714 164.356C831.033 165.813 830.507 167.337 830.147 168.903C827.696 176.287 817.66 179.94 811.047 175.823C807.735 173.749 805.472 170.305 802.48 167.723C798.682 164.467 793.813 162.789 789.552 160.163C775.354 151.366 788.15 142.272 782.652 130.739Z" fill="#3F3D56"/>
<path d="M671.929 506.742C665.89 508.673 660.392 512.172 654.519 514.633C644.174 518.948 632.803 519.953 621.95 522.712C611.524 525.507 601.474 529.554 592.02 534.764C591.325 535.139 589.139 536.971 587.394 538.229C587.394 537.666 587.394 537.126 587.394 536.53C587.639 532.921 589.148 529.513 591.656 526.906C594.239 524.224 597.695 522.59 601.095 521.067C618.708 513.209 637.019 507.02 655.788 502.581C658.78 501.875 661.949 501.213 664.897 502.107C665.835 504.987 668.882 506.003 671.929 506.742Z" fill="#3F3D56"/>
<path opacity="0.1" d="M515.412 789.773C527.291 803.017 537.945 817.475 551.768 828.644C535.815 807.465 512.928 793.327 492.239 777.357C488.044 774.113 479.653 769.51 477.114 764.82C473.106 757.47 481.96 762.69 485.637 764.687C497.119 770.923 506.746 780.127 515.412 789.773Z" fill="black"/>
<path opacity="0.1" d="M942.834 403.186C942.271 407.954 940.493 412.479 938.694 416.916C934.278 427.952 929.541 438.879 922.873 448.668C918.28 455.411 912.815 461.503 908.024 468.092C903.106 475.086 898.594 482.356 894.511 489.867C886.981 503.199 879.643 516.642 872.497 530.195C869.085 536.684 865.696 543.229 861.291 549.089C858.199 553.045 854.882 556.818 851.355 560.39C843.627 568.535 835.689 576.062 828.777 584.892C825.355 589.306 819.647 591.006 814.315 592.507C812.532 593.1 810.673 593.434 808.795 593.5C806.904 593.368 805.043 592.955 803.275 592.275C797.319 590.458 791.492 588.246 785.831 585.653C784.55 561.207 781.647 536.673 788.039 513.254C789.949 506.345 792.643 499.679 794.807 492.847C799.035 479.526 800.128 465.752 801.188 451.935C802.502 449.165 803.904 446.416 805.262 443.746C814.469 425.557 822.231 405.526 819.835 385.252C819.225 381.597 818.801 377.914 818.565 374.216C818.588 369.682 819.353 365.182 820.828 360.895C824.133 350.768 829.595 341.479 836.837 333.667C844.08 325.855 852.932 319.706 862.781 315.645C865.892 314.192 869.284 313.438 872.717 313.438C877.134 313.669 881.362 315.965 885.668 315.126C900.252 321.538 912.054 332.487 920.875 345.752C929.696 359.018 930.182 376.743 939.776 389.457C942.613 393.32 943.386 398.43 942.834 403.186Z" fill="black"/>
<path d="M623.617 343.291L623.154 342.287L605.114 350.609L602.1 351.999L599.097 353.379L624.534 408.506L627.537 407.115L630.551 405.725L648.59 397.403L648.127 396.41L630.087 404.732L629.623 403.727L647.663 395.406L647.199 394.401L629.159 402.723L628.696 401.719L646.735 393.397L646.283 392.393L628.232 400.714L627.768 399.721L645.819 391.399L645.355 390.395L627.305 398.717L626.841 397.712L644.892 389.391L644.428 388.387L626.388 396.708L625.925 395.704L643.964 387.382L643.501 386.389L625.461 394.71L624.997 393.706L643.037 385.385L642.573 384.38L624.534 392.702L624.07 391.697L642.121 383.376L641.657 382.372L623.606 390.693L623.143 389.7L641.193 381.367L640.73 380.374L622.679 388.696L622.226 387.691L640.266 379.37L639.802 378.365L621.763 386.687L621.299 385.683L639.339 377.361L638.875 376.357L620.835 384.678L620.371 383.685L638.411 375.363L637.958 374.359L619.908 382.681L619.444 381.676L637.495 373.355L637.031 372.35L618.98 380.672L618.528 379.668L636.567 371.357L636.104 370.353L618.064 378.674L617.6 377.67L635.64 369.349L635.176 368.344L617.137 376.666L616.673 375.661L634.713 367.34L634.26 366.336L616.209 374.668L615.746 373.664L633.796 365.342L633.333 364.338L615.282 372.659L614.818 371.655L632.869 363.334L632.405 362.329L614.366 370.651L613.902 369.647L631.942 361.325L631.478 360.332L613.438 368.653L612.975 367.649L631.014 359.327L630.551 358.323L612.511 366.645L612.047 365.64L630.098 357.319L629.634 356.325L611.584 364.636L611.12 363.643L629.171 355.321L628.707 354.317L610.656 362.638L610.203 361.634L628.243 353.312L627.779 352.308L609.74 360.63L609.276 359.625L627.316 351.304L626.852 350.311L608.812 358.632L608.349 357.628L626.388 349.306L625.936 348.302L607.885 356.623L607.421 355.619L625.472 347.298L625.008 346.293L606.958 354.615L606.494 353.622L624.545 345.3L624.081 344.296L606.03 352.617L605.578 351.613L623.617 343.291Z" fill="black"/>
<path opacity="0.1" d="M680.254 464.538C677.924 468.478 674.358 471.9 669.931 473.059C664.411 474.482 657.985 471.723 655.579 466.558C654.099 463.358 654.166 459.693 654.088 456.173C653.966 449.278 653.227 442.408 651.88 435.645C651.196 432.257 650.279 428.736 647.972 426.176C644.991 422.865 640.244 421.761 635.828 421.684C630.661 421.617 624.997 423.019 621.983 427.202C619.566 430.579 619.146 435.325 615.933 437.963C614.505 439.058 612.808 439.748 611.02 439.96C607.376 440.414 603.684 439.633 600.536 437.743C597.388 435.852 594.965 432.96 593.654 429.531C592.638 426.617 592.142 422.997 589.382 421.628C587.946 420.911 586.235 421.044 584.701 420.58C579.997 419.156 578.761 413.197 578.33 408.307C577.834 402.579 579.743 391.267 572.623 390.881C565.005 390.461 556.162 394.887 549.107 397.238C544.58 399.059 539.259 401.156 535.097 398.606C532.039 396.719 530.78 392.801 530.968 389.214C531.156 385.627 532.525 382.228 533.606 378.807C535.461 373.024 536.576 367.02 538.276 361.148C537.477 362.809 536.766 364.511 536.146 366.247C533.695 373.211 532.547 380.595 530.294 387.592C529.19 391.013 527.843 394.412 527.656 397.999C527.468 401.586 528.76 405.504 531.785 407.391C535.947 409.941 541.268 407.844 545.795 406.023C552.85 403.672 561.693 399.246 569.31 399.666C576.431 400.052 574.522 411.365 575.018 417.092C575.449 421.982 576.685 427.941 581.388 429.365C582.923 429.829 584.634 429.696 586.07 430.414C588.83 431.782 589.382 435.402 590.342 438.316C591.653 441.746 594.076 444.637 597.224 446.528C600.372 448.418 604.064 449.199 607.708 448.745C609.496 448.533 611.193 447.843 612.621 446.748C615.834 444.11 616.253 439.364 618.671 435.987C621.685 431.782 627.349 430.38 632.516 430.469C636.932 430.535 641.734 431.639 644.66 434.961C646.967 437.521 647.884 441.042 648.568 444.43C649.915 451.193 650.654 458.063 650.776 464.958C650.854 468.478 650.776 472.143 652.267 475.343C654.662 480.508 661.099 483.267 666.619 481.844C671.035 480.685 674.612 477.264 676.941 473.324C678.715 470.106 680.08 466.681 681.004 463.126C680.761 463.633 680.518 464.086 680.254 464.538Z" fill="black"/>
<path d="M737.044 457.21C728.212 448.734 720.23 439.353 712.303 429.994C704.708 421.044 697.09 412.049 690.974 402.039C687.187 395.847 683.809 389.093 677.99 384.755C673.574 381.445 668.176 379.899 663.296 377.372C659.785 375.551 656.55 373.244 653.084 371.357C645.522 367.271 637.011 365.264 628.42 365.541C624.854 365.662 620.802 366.49 618.969 369.558C618.34 370.607 618.042 371.832 617.402 372.869C615.425 376.18 610.667 377.118 609.044 380.595C606.306 386.444 614.564 391.819 615.083 398.253C615.326 401.476 613.549 404.478 613.03 407.667C612.147 413.186 615.006 418.45 617.766 423.262C623.672 433.57 630.86 444.86 642.463 447.454C646.57 448.37 650.909 448.072 654.916 449.374C658.146 450.598 661.136 452.38 663.748 454.639C674.65 463.228 684.258 473.342 692.276 484.669C696.008 489.933 699.386 495.43 703.151 500.661C715.133 517.234 730.857 530.748 749.045 540.105L762.591 497.063C764.678 490.441 766.323 481.358 760.383 476.193C752.942 469.494 744.364 464.207 737.044 457.21Z" fill="#FBBEBE"/>
<path d="M884.508 309.652C880.203 310.48 875.93 308.195 871.558 307.964C868.124 307.962 864.732 308.716 861.622 310.171C851.774 314.235 842.924 320.385 835.681 328.196C828.439 336.008 822.976 345.296 819.669 355.42C818.207 359.726 817.454 364.239 817.439 368.786C817.505 372.483 818.278 376.125 818.709 379.822C821.105 400.063 813.343 420.105 804.147 438.316C799.057 448.37 793.316 458.976 794.52 470.178C794.674 471.679 794.917 473.368 794.001 474.593C792.897 476.049 790.512 476.127 789.485 477.661C788.459 479.195 789.397 481.513 788.58 483.245C787.476 485.695 783.877 485.397 781.305 484.526C774.253 482.14 767.722 478.432 762.061 473.599C752.887 478.952 743.072 485.331 740.058 495.507C739.35 498.103 738.859 500.754 738.59 503.431L733.854 542.942C733.224 548.173 732.915 554.309 736.868 557.797C743.68 563.823 755.813 556.02 763.099 561.472C764.965 562.863 766.179 564.938 767.515 566.825C775.475 577.74 789.176 582.541 802.027 586.69C803.798 587.362 805.658 587.771 807.547 587.904C809.427 587.852 811.287 587.517 813.067 586.911C818.411 585.41 824.107 583.667 827.53 579.307C834.452 570.478 842.39 562.951 850.118 554.806C853.64 551.228 856.957 547.455 860.054 543.505C864.471 537.633 867.849 531.089 871.26 524.599C878.392 511.046 885.723 497.604 893.252 484.272C897.378 476.791 901.93 469.554 906.887 462.596C911.689 455.974 917.143 449.904 921.736 443.172C928.36 433.371 933.118 422.401 937.557 411.42C939.356 407.005 941.134 402.447 941.708 397.69C942.282 392.934 941.509 387.824 938.617 383.994C929.023 371.269 928.548 353.555 919.727 340.289C910.906 327.024 899.104 316.053 884.508 309.652Z" fill="#E8E8F0"/>
<path d="M623.915 347.816C623.658 347.98 623.439 348.198 623.275 348.456C623.111 348.713 623.005 349.004 622.966 349.306C622.966 349.858 623.418 350.288 623.661 350.785C624.335 352.198 623.253 353.831 622.016 354.802C620.78 355.774 619.278 356.524 618.605 357.948C618.501 358.136 618.455 358.351 618.472 358.566C618.547 358.857 618.718 359.113 618.958 359.294C619.685 360.13 620.629 360.748 621.685 361.082C623.374 361.435 624.997 360.321 626.432 359.405C627.989 358.42 629.647 357.606 631.378 356.977C631.914 356.818 632.419 356.568 632.869 356.237C633.421 355.687 633.761 354.96 633.829 354.184C634.205 351.414 632.725 348.754 631.036 346.459C629.005 343.755 625.649 346.326 623.915 347.816Z" fill="#3F3D56"/>
<path d="M454.536 674.885L339.938 616.413C339.101 615.986 338.077 616.318 337.65 617.154L308.445 674.356C308.018 675.192 308.35 676.215 309.186 676.642L423.784 735.114C424.621 735.541 425.645 735.209 426.072 734.373L455.277 677.172C455.704 676.336 455.372 675.312 454.536 674.885Z" fill="#3F3D56"/>
<path d="M443.985 676.356L345.12 625.911L320.035 675.042L418.9 725.486L443.985 676.356Z" fill="#E8E8F0"/>
<path d="M330.403 649.384C330.705 648.793 330.224 647.942 329.328 647.485C328.432 647.028 327.46 647.137 327.158 647.729C326.856 648.32 327.337 649.171 328.234 649.628C329.13 650.085 330.101 649.976 330.403 649.384Z" fill="#E6E8EC"/>
<path d="M438.518 704.692C439.014 703.72 438.219 702.321 436.742 701.567C435.264 700.814 433.665 700.99 433.169 701.962C432.672 702.934 433.468 704.333 434.945 705.086C436.422 705.84 438.022 705.663 438.518 704.692Z" fill="#E6E8EC"/>
<g opacity="0.1">
<path opacity="0.1" d="M920.014 169.82C917.718 179.554 913.39 189.067 913.898 199.055C904.728 201.673 895.407 203.733 885.988 205.225C881.572 205.92 876.471 206.328 873.237 203.205C871.869 201.739 870.87 199.968 870.322 198.04C866.822 187.699 867.992 175.89 862.704 166.332C860.493 162.435 857.333 159.16 853.517 156.81C849.702 154.46 845.354 153.111 840.878 152.89C837.411 152.768 833.47 153.618 831.692 156.587C831.011 158.043 830.485 159.567 830.125 161.134C827.674 168.517 817.638 172.17 811.025 168.054C807.713 165.979 805.45 162.535 802.458 159.953C798.66 156.697 793.791 155.02 789.53 152.393C785.688 150.031 783.844 147.647 783.06 145.186C782.089 150.495 781.813 155.373 789.53 160.118C793.791 162.745 798.66 164.423 802.458 167.678C805.45 170.239 807.669 173.704 811.025 175.779C817.649 179.874 827.674 176.243 830.125 168.859C830.485 167.293 831.011 165.769 831.692 164.312C833.47 161.343 837.411 160.494 840.878 160.615C845.354 160.837 849.702 162.185 853.517 164.535C857.333 166.885 860.493 170.161 862.704 174.058C867.992 183.615 866.822 195.424 870.322 205.765C870.878 207.71 871.892 209.493 873.281 210.964C876.516 214.054 881.627 213.679 886.032 212.983C895.451 211.492 904.772 209.432 913.942 206.814C913.401 196.826 917.762 187.312 920.058 177.578C921.827 169.613 922.536 161.449 922.167 153.298C921.991 158.862 921.27 164.396 920.014 169.82Z" fill="black"/>
<path opacity="0.1" d="M783.722 133.829C784.53 130.199 784.143 126.406 782.618 123.014C781.227 120.1 777.286 118.18 774.636 120.023C771.987 121.866 772.362 125.982 771.711 129.293C770.452 135.805 763.983 140.242 757.358 141.279C754.256 141.776 750.801 141.577 748.394 139.568C746.844 138.084 745.703 136.225 745.082 134.172C743.386 129.581 742.356 124.772 742.024 119.89C741.463 127.36 742.506 134.863 745.082 141.897C745.703 143.951 746.844 145.81 748.394 147.294C750.801 149.303 754.256 149.501 757.358 149.005C763.905 147.967 770.408 143.486 771.711 137.019C772.34 133.708 771.909 129.702 774.647 127.804C777.385 125.905 781.271 127.881 782.629 130.794C783.102 131.764 783.469 132.781 783.722 133.829Z" fill="black"/>
</g>
</g>
<mask id="mask0_34_1227" style="mask-type:alpha" maskUnits="userSpaceOnUse" x="251" y="0" width="780" height="840">
<rect x="251" width="780" height="840" fill="#C4C4C4"/>
</mask>
<g mask="url(#mask0_34_1227)">
</g>
<defs>
<clipPath id="clip0_34_1227">
<rect width="1263" height="789" fill="white" transform="translate(0 56)"/>
</clipPath>
</defs>
</svg>
