<svg width="801" height="560" viewBox="0 0 801 560" fill="none" xmlns="http://www.w3.org/2000/svg">
<g clip-path="url(#clip0_83102_461)" filter="url(#filter0_d_83102_461)">
<path d="M162 551.731C249.261 551.731 320 546.359 320 539.731C320 533.104 249.261 527.731 162 527.731C74.739 527.731 4 533.104 4 539.731C4 546.359 74.739 551.731 162 551.731Z" fill="#E6E6E6"/>
<path d="M124.772 122.42C152.269 110.724 186.517 118.134 219.963 123.277C220.274 117.049 224.047 109.469 220.095 105.124C215.294 99.8455 215.736 94.299 218.625 88.7205C226.013 74.4555 215.428 59.2768 204.741 46.6558C202.332 43.8176 199.288 41.5875 195.855 40.1467C192.422 38.706 188.698 38.0952 184.985 38.364L165.188 39.7781C160.37 40.1222 155.773 41.9294 152.011 44.9579C148.248 47.9863 145.5 52.0915 144.135 56.7243C139.408 63.1535 136.878 69.5648 138.471 75.9428C131.39 80.7817 130.2 86.6226 133.382 93.2072C136.08 97.3532 136.051 101.389 133.259 105.313C129.593 110.316 126.784 115.894 124.949 121.819L124.772 122.42Z" fill="black"/>
<path d="M778.209 476.963H217.791C212.807 476.963 208.028 474.983 204.504 471.459C200.98 467.935 199 463.156 199 458.172C402.151 434.562 601.485 434.562 797 458.172C797 463.156 795.02 467.935 791.496 471.459C787.972 474.983 783.193 476.963 778.209 476.963Z" fill="black"/>
<path d="M797 459.277L199 458.172L268.306 341.556L268.638 341.004V83.9964C268.637 80.8769 269.252 77.7878 270.445 74.9057C271.639 72.0236 273.389 69.4049 275.595 67.1991C277.8 64.9932 280.419 63.2435 283.301 62.0498C286.183 60.8562 289.272 60.2419 292.392 60.2422H700.292C703.411 60.2419 706.501 60.8562 709.383 62.0498C712.265 63.2435 714.883 64.9932 717.089 67.1991C719.295 69.4049 721.045 72.0236 722.239 74.9057C723.432 77.7878 724.046 80.8769 724.046 83.9964V342.772L797 459.277Z" fill="#3F3D56"/>
<path d="M291.85 76.8225C289.799 76.8248 287.832 77.6408 286.382 79.0913C284.931 80.5419 284.115 82.5086 284.113 84.56V318.896C284.115 320.948 284.931 322.915 286.382 324.365C287.832 325.816 289.799 326.632 291.85 326.634H704.15C706.201 326.631 708.168 325.815 709.618 324.365C711.069 322.914 711.885 320.948 711.887 318.896V84.56C711.885 82.5086 711.069 80.542 709.618 79.0914C708.168 77.6409 706.201 76.8249 704.15 76.8225H291.85Z" fill="white"/>
<path d="M293.578 357.584C292.944 357.585 292.324 357.767 291.79 358.109C291.256 358.451 290.831 358.939 290.565 359.514L269.21 405.939C268.977 406.445 268.876 407 268.914 407.555C268.953 408.11 269.13 408.646 269.43 409.114C269.73 409.582 270.143 409.968 270.631 410.235C271.119 410.502 271.666 410.641 272.222 410.641H721.314C721.879 410.641 722.435 410.497 722.929 410.222C723.423 409.946 723.838 409.549 724.135 409.069C724.432 408.588 724.601 408.039 724.626 407.474C724.652 406.91 724.532 406.348 724.279 405.842L701.067 359.417C700.793 358.865 700.37 358.401 699.846 358.077C699.322 357.753 698.718 357.582 698.102 357.584H293.578Z" fill="black"/>
<path d="M496.342 72.9537C499.089 72.9537 501.316 70.7267 501.316 67.9796C501.316 65.2325 499.089 63.0055 496.342 63.0055C493.595 63.0055 491.368 65.2325 491.368 67.9796C491.368 70.7267 493.595 72.9537 496.342 72.9537Z" fill="white"/>
<path d="M452.2 419.484C451.471 419.485 450.763 419.726 450.184 420.169C449.605 420.613 449.189 421.234 448.998 421.938L443.641 441.834C443.509 442.326 443.491 442.841 443.59 443.341C443.689 443.84 443.901 444.31 444.211 444.714C444.521 445.118 444.919 445.445 445.375 445.67C445.832 445.896 446.334 446.013 446.843 446.013H548.717C549.246 446.013 549.767 445.887 550.237 445.644C550.706 445.402 551.112 445.051 551.418 444.62C551.725 444.189 551.924 443.692 551.999 443.168C552.074 442.645 552.023 442.111 551.85 441.612L544.963 421.715C544.737 421.064 544.314 420.499 543.752 420.099C543.191 419.7 542.519 419.485 541.829 419.484H452.2Z" fill="black"/>
<path d="M724.046 337.135V341.556H268.306L268.649 341.004V337.135H724.046Z" fill="black"/>
<path d="M711.335 154.75C754.068 154.75 788.71 120.108 788.71 77.3752C788.71 34.6421 754.068 0 711.335 0C668.601 0 633.959 34.6421 633.959 77.3752C633.959 120.108 668.601 154.75 711.335 154.75Z" fill="#A0211A"/>
<path d="M743.39 111.089H679.279C678.107 111.088 676.983 110.621 676.154 109.792C675.325 108.964 674.859 107.84 674.858 106.667V67.9797C674.859 66.8074 675.325 65.6835 676.154 64.8546C676.983 64.0257 678.107 63.5595 679.279 63.5582H743.39C744.562 63.5595 745.686 64.0257 746.515 64.8546C747.344 65.6835 747.81 66.8074 747.811 67.9797V106.667C747.81 107.84 747.344 108.964 746.515 109.792C745.686 110.621 744.562 111.088 743.39 111.089ZM679.279 67.9797V106.667H743.393L743.39 67.9797L679.279 67.9797Z" fill="white"/>
<path d="M731.231 67.9796H691.438V50.2939C691.438 37.484 699.806 28.1866 711.335 28.1866C722.863 28.1866 731.231 37.484 731.231 50.2939L731.231 67.9796ZM695.859 63.5582H726.81V50.2939C726.81 39.8809 720.446 32.6081 711.335 32.6081C702.223 32.6081 695.86 39.8809 695.86 50.2939L695.859 63.5582Z" fill="white"/>
<path d="M711.335 90.6395C713.776 90.6395 715.756 88.66 715.756 86.2181C715.756 83.7762 713.776 81.7966 711.335 81.7966C708.893 81.7966 706.913 83.7762 706.913 86.2181C706.913 88.66 708.893 90.6395 711.335 90.6395Z" fill="white"/>
<path d="M657.32 247.149H338.68C337.116 247.148 335.616 246.525 334.51 245.419C333.403 244.313 332.781 242.813 332.779 241.249V162.208C332.781 160.643 333.403 159.144 334.51 158.037C335.616 156.931 337.116 156.309 338.68 156.307H657.32C658.884 156.309 660.384 156.931 661.49 158.037C662.597 159.144 663.219 160.643 663.221 162.208V241.249C663.219 242.813 662.597 244.313 661.49 245.419C660.384 246.525 658.884 247.148 657.32 247.149ZM338.68 158.667C337.741 158.668 336.841 159.042 336.178 159.705C335.514 160.369 335.141 161.269 335.14 162.208V241.249C335.141 242.187 335.514 243.087 336.178 243.751C336.841 244.415 337.741 244.788 338.68 244.789H657.32C658.259 244.788 659.159 244.415 659.822 243.751C660.486 243.087 660.859 242.187 660.86 241.249V162.208C660.859 161.269 660.486 160.369 659.822 159.705C659.159 159.042 658.259 158.668 657.32 158.667L338.68 158.667Z" fill="#E6E6E6"/>
<path d="M388.19 222.732C401.465 222.732 412.227 211.97 412.227 198.696C412.227 185.421 401.465 174.659 388.19 174.659C374.915 174.659 364.154 185.421 364.154 198.696C364.154 211.97 374.915 222.732 388.19 222.732Z" fill="#E6E6E6"/>
<path d="M443.703 182.671C443.176 182.67 442.655 182.773 442.168 182.974C441.681 183.175 441.239 183.47 440.866 183.842C440.494 184.214 440.198 184.656 439.996 185.143C439.794 185.629 439.691 186.151 439.691 186.677C439.691 187.204 439.794 187.725 439.996 188.212C440.198 188.698 440.494 189.14 440.866 189.512C441.239 189.884 441.681 190.179 442.168 190.38C442.655 190.581 443.176 190.684 443.703 190.683H632.561C633.623 190.683 634.642 190.261 635.393 189.51C636.145 188.759 636.567 187.74 636.567 186.677C636.567 185.615 636.145 184.596 635.393 183.844C634.642 183.093 633.623 182.671 632.561 182.671H443.703Z" fill="#E6E6E6"/>
<path d="M443.703 206.708C442.641 206.708 441.622 207.13 440.87 207.881C440.119 208.632 439.697 209.651 439.697 210.714C439.697 211.776 440.119 212.795 440.87 213.546C441.622 214.298 442.641 214.72 443.703 214.72H524.969C526.031 214.72 527.05 214.298 527.802 213.546C528.553 212.795 528.975 211.776 528.975 210.714C528.975 209.651 528.553 208.632 527.802 207.881C527.05 207.13 526.031 206.708 524.969 206.708H443.703Z" fill="#E6E6E6"/>
<path d="M267.522 208.328L208.619 239.644L207.873 213.547C227.099 210.338 245.39 204.75 262.303 195.653L268.463 180.433C269.134 178.774 270.225 177.319 271.629 176.209C273.033 175.1 274.701 174.375 276.47 174.105C278.238 173.834 280.047 174.029 281.717 174.669C283.388 175.309 284.864 176.372 286 177.755C287.661 179.778 288.492 182.356 288.323 184.969C288.154 187.581 286.999 190.031 285.091 191.824L267.522 208.328Z" fill="#FFB8B8"/>
<path d="M123.598 389.133C123.168 387.557 123.077 385.908 123.33 384.294C123.584 382.68 124.176 381.138 125.067 379.77L138.007 359.912C141.067 355.215 145.763 351.823 151.184 350.393C156.604 348.962 162.363 349.597 167.342 352.173C161.904 361.429 162.662 369.549 169.22 376.606C159.039 381.576 149.63 387.991 141.284 395.651C139.76 396.69 138.01 397.35 136.18 397.575C134.35 397.801 132.492 397.586 130.762 396.948C129.032 396.31 127.479 395.268 126.233 393.909C124.987 392.549 124.083 390.912 123.598 389.133Z" fill="black"/>
<path d="M270.205 363.168C268.247 366.432 265.483 369.137 262.178 371.025C258.874 372.912 255.139 373.919 251.334 373.948L165.374 374.599L161.646 352.976L199.672 341.792L167.61 317.187L202.654 276.178L266.304 335.503C270.024 338.97 272.441 343.609 273.151 348.645C273.861 353.681 272.821 358.808 270.205 363.168Z" fill="black"/>
<path d="M151.953 511.045H131.821C113.746 387.147 95.3474 262.903 149.716 216.53L213.838 226.968L205.636 281.398L169.847 322.406L151.953 511.045Z" fill="black"/>
<path d="M169.649 539.112C168.073 539.542 166.424 539.633 164.81 539.38C163.197 539.127 161.655 538.535 160.286 537.643L138.427 534.705C133.73 531.645 130.338 526.949 128.907 521.529C127.477 516.108 128.111 510.35 130.686 505.37C139.943 510.808 148.063 510.049 155.12 503.491C160.106 513.558 168.321 512.944 176.167 521.426C177.205 522.949 177.865 524.699 178.091 526.529C178.316 528.36 178.101 530.217 177.464 531.948C176.826 533.678 175.784 535.231 174.425 536.477C173.066 537.723 171.428 538.626 169.649 539.112Z" fill="black"/>
<path d="M199.672 133.767L162.391 124.82C168.583 112.146 169.093 98.0438 166.119 83.0659L191.47 82.3203C192.264 100.946 194.667 118.347 199.672 133.767Z" fill="#FFB8B8"/>
<path d="M209.918 249.418C182.779 267.911 163.603 250.051 148.97 222.495C151.004 205.633 147.711 185.454 141.614 163.528C138.902 153.858 139.914 143.522 144.451 134.561C148.988 125.6 156.719 118.666 166.119 115.127L198.18 128.548C225.404 150.739 230.762 174.775 220.549 200.127L209.918 249.418Z" fill="#A0211A"/>
<path d="M131.821 152.408L101.997 168.065L154.935 199.381L162.301 217.55C162.793 218.763 163.032 220.063 163.005 221.372C162.978 222.68 162.684 223.969 162.143 225.16C161.601 226.351 160.822 227.42 159.854 228.3C158.886 229.181 157.749 229.855 156.512 230.281C155.106 230.766 153.606 230.919 152.131 230.728C150.656 230.536 149.245 230.006 148.009 229.179C146.773 228.351 145.745 227.249 145.006 225.957C144.268 224.666 143.838 223.222 143.75 221.737L143.005 209.074L75.7216 186.87C73.4546 186.122 71.3876 184.868 69.6771 183.203C67.9666 181.537 66.6575 179.505 65.8489 177.259C64.6703 173.985 64.6103 170.412 65.6783 167.101C66.7464 163.789 68.8822 160.925 71.7515 158.956L125.856 121.838L131.821 152.408Z" fill="#FFB8B8"/>
<path d="M161.646 155.39C149.207 149.939 137.896 155.86 123.62 160.609L121.383 121.092C135.559 113.536 149.075 111.499 161.646 117.364L161.646 155.39Z" fill="#A0211A"/>
<path d="M176.525 101.895C189.671 101.895 200.327 91.2381 200.327 78.0925C200.327 64.947 189.671 54.2904 176.525 54.2904C163.379 54.2904 152.723 64.947 152.723 78.0925C152.723 91.2381 163.379 101.895 176.525 101.895Z" fill="#FFB8B8"/>
<path d="M205 75.0893C181.434 77.3974 163.477 73.5433 152 62.5693V53.7316H203L205 75.0893Z" fill="black"/>
</g>
<defs>
<filter id="filter0_d_83102_461" x="0" y="0" width="801" height="559.731" filterUnits="userSpaceOnUse" color-interpolation-filters="sRGB">
<feFlood flood-opacity="0" result="BackgroundImageFix"/>
<feColorMatrix in="SourceAlpha" type="matrix" values="0 0 0 0 0 0 0 0 0 0 0 0 0 0 0 0 0 0 127 0" result="hardAlpha"/>
<feOffset dy="4"/>
<feGaussianBlur stdDeviation="2"/>
<feComposite in2="hardAlpha" operator="out"/>
<feColorMatrix type="matrix" values="0 0 0 0 0 0 0 0 0 0 0 0 0 0 0 0 0 0 0.25 0"/>
<feBlend mode="normal" in2="BackgroundImageFix" result="effect1_dropShadow_83102_461"/>
<feBlend mode="normal" in="SourceGraphic" in2="effect1_dropShadow_83102_461" result="shape"/>
</filter>
<clipPath id="clip0_83102_461">
<rect width="793" height="551.732" fill="white" transform="translate(4)"/>
</clipPath>
</defs>
</svg>
