<svg width="34" height="34" viewBox="0 0 34 34" fill="none" xmlns="http://www.w3.org/2000/svg">
<path d="M28.3333 19.8333C28.2029 19.924 25.4999 22.7842 25.4999 24.7917C25.4999 26.9082 26.8443 28.2597 28.3333 28.3333C29.6168 28.3957 31.1666 27.0711 31.1666 24.7917C31.1666 22.6667 28.4636 19.924 28.3333 19.8333ZM13.5801 28.3333C14.1156 28.8688 14.8268 29.1635 15.5833 29.1635C16.3398 29.1635 17.0509 28.8688 17.5864 28.3333L27.5031 18.4167L26.5015 17.4151L15.5833 6.49683L12.3348 3.24841L10.3317 5.25158L13.5801 8.5L5.66659 16.4135C5.13109 16.949 4.83643 17.6602 4.83643 18.4167C4.83643 19.1732 5.13109 19.8843 5.66659 20.4198L13.5801 28.3333ZM15.5833 10.5032L23.4968 18.4167H7.66976L15.5833 10.5032Z" fill="#C4C4C4"/>
</svg>
