<svg width="34" height="34" viewBox="0 0 34 34" fill="none" xmlns="http://www.w3.org/2000/svg">
<path d="M9.9165 29.75C12.2637 29.75 14.1665 27.8472 14.1665 25.5C14.1665 23.1528 12.2637 21.25 9.9165 21.25C7.56929 21.25 5.6665 23.1528 5.6665 25.5C5.6665 27.8472 7.56929 29.75 9.9165 29.75Z" stroke="#C4C4C4" stroke-width="2.83333" stroke-linecap="round" stroke-linejoin="round"/>
<path d="M21.2498 21.25L9.9165 4.25" stroke="#C4C4C4" stroke-width="2.83333" stroke-linecap="round" stroke-linejoin="round"/>
<path d="M24.0833 4.25L19.8333 10.625M12.75 21.25L17 14.875L12.75 21.25Z" stroke="#C4C4C4" stroke-width="2.83333" stroke-linecap="round" stroke-linejoin="round"/>
<path d="M24.083 29.75C26.4302 29.75 28.333 27.8472 28.333 25.5C28.333 23.1528 26.4302 21.25 24.083 21.25C21.7358 21.25 19.833 23.1528 19.833 25.5C19.833 27.8472 21.7358 29.75 24.083 29.75Z" stroke="#C4C4C4" stroke-width="2.83333" stroke-linecap="round" stroke-linejoin="round"/>
</svg>
