<svg width="34" height="34" viewBox="0 0 34 34" fill="none" xmlns="http://www.w3.org/2000/svg">
<path d="M17 29.0416C24.0415 29.0416 29.75 23.1468 29.75 19.1249C29.75 15.103 24.0415 9.20825 17 9.20825C9.95846 9.20825 4.25 15.1073 4.25 19.1249C4.25 23.1426 9.95846 29.0416 17 29.0416Z" stroke="#C4C4C4" stroke-width="2.83333" stroke-linejoin="round"/>
<path d="M17 23.375C18.1272 23.375 19.2082 22.9272 20.0052 22.1302C20.8022 21.3332 21.25 20.2522 21.25 19.125C21.25 17.9978 20.8022 16.9168 20.0052 16.1198C19.2082 15.3228 18.1272 14.875 17 14.875C15.8728 14.875 14.7918 15.3228 13.9948 16.1198C13.1978 16.9168 12.75 17.9978 12.75 19.125C12.75 20.2522 13.1978 21.3332 13.9948 22.1302C14.7918 22.9272 15.8728 23.375 17 23.375V23.375Z" stroke="#C4C4C4" stroke-width="2.83333" stroke-linejoin="round"/>
<path d="M9.39551 7.97998L11.2329 10.5441" stroke="#C4C4C4" stroke-width="2.83333" stroke-linecap="round"/>
<path d="M25.2346 8.29443L23.3965 10.8586" stroke="#C4C4C4" stroke-width="2.83333" stroke-linecap="round"/>
<path d="M17.0063 4.95825V9.20825" stroke="#C4C4C4" stroke-width="2.83333" stroke-linecap="round"/>
</svg>
