<svg width="32" height="34" viewBox="0 0 32 34" fill="none" xmlns="http://www.w3.org/2000/svg">
<g clip-path="url(#clip0_83141_935)">
<path d="M30.6507 34H1.33229C0.712499 34 0.308527 33.679 0.120376 33.0371C-0.0677748 32.3952 0.015233 31.6426 0.3694 30.7793L5.28346 13.6797C5.372 13.4362 5.56569 13.2204 5.86452 13.0322C6.16334 12.8441 6.47877 12.75 6.81081 12.75H10.6624V10.625H7.47487C7.18711 10.625 6.93808 10.5199 6.7278 10.3096C6.51751 10.0993 6.41237 9.85026 6.41237 9.5625V1.0625C6.41237 0.77474 6.51751 0.525716 6.7278 0.31543C6.93808 0.105143 7.18711 0 7.47487 0H24.4749C24.7848 0 25.0393 0.105143 25.2385 0.31543C25.4378 0.525716 25.5374 0.77474 25.5374 1.0625V9.5625C25.5374 9.85026 25.4378 10.0993 25.2385 10.3096C25.0393 10.5199 24.7848 10.625 24.4749 10.625H21.2874V12.75H25.0393C25.3492 12.75 25.6536 12.8385 25.9524 13.0156C26.2512 13.1927 26.456 13.4141 26.5667 13.6797L31.5803 30.7793C31.9345 31.6426 32.023 32.3952 31.846 33.0371C31.6689 33.679 31.2704 34 30.6507 34ZM10.6624 3.1875C10.6624 2.89974 10.5628 2.65072 10.3635 2.44043C10.1643 2.23014 9.9153 2.125 9.61647 2.125C9.31764 2.125 9.06308 2.23014 8.8528 2.44043C8.64251 2.65072 8.53737 2.89974 8.53737 3.1875V7.4375C8.53737 7.72526 8.64251 7.97428 8.8528 8.18457C9.06308 8.39486 9.31764 8.5 9.61647 8.5C9.9153 8.5 10.1643 8.39486 10.3635 8.18457C10.5628 7.97428 10.6624 7.72526 10.6624 7.4375V3.1875ZM14.9124 3.1875C14.9124 2.89974 14.8128 2.65072 14.6135 2.44043C14.4143 2.23014 14.1653 2.125 13.8665 2.125C13.5676 2.125 13.3131 2.23014 13.1028 2.44043C12.8925 2.65072 12.7874 2.89974 12.7874 3.1875V7.4375C12.7874 7.72526 12.8925 7.97428 13.1028 8.18457C13.3131 8.39486 13.5676 8.5 13.8665 8.5C14.1653 8.5 14.4143 8.39486 14.6135 8.18457C14.8128 7.97428 14.9124 7.72526 14.9124 7.4375V3.1875ZM19.1624 3.1875C19.1624 2.89974 19.0628 2.65072 18.8635 2.44043C18.6643 2.23014 18.4153 2.125 18.1165 2.125C17.8176 2.125 17.5631 2.23014 17.3528 2.44043C17.1425 2.65072 17.0374 2.89974 17.0374 3.1875V7.4375C17.0374 7.72526 17.1425 7.97428 17.3528 8.18457C17.5631 8.39486 17.8176 8.5 18.1165 8.5C18.4153 8.5 18.6643 8.39486 18.8635 8.18457C19.0628 7.97428 19.1624 7.72526 19.1624 7.4375V3.1875ZM22.3665 8.5C22.6653 8.5 22.9143 8.39486 23.1135 8.18457C23.3128 7.97428 23.4124 7.72526 23.4124 7.4375V3.1875C23.4124 2.89974 23.3128 2.65072 23.1135 2.44043C22.9143 2.23014 22.6653 2.125 22.3665 2.125C22.0676 2.125 21.8131 2.23014 21.6028 2.44043C21.3925 2.65072 21.2874 2.89974 21.2874 3.1875V7.4375C21.2874 7.72526 21.3925 7.97428 21.6028 8.18457C21.8131 8.39486 22.0676 8.5 22.3665 8.5ZM23.4124 14.875H8.53737L6.7112 22.2461C7.99505 22.9987 9.31211 23.375 10.6624 23.375C11.4371 23.375 12.1952 23.2311 12.9368 22.9434C13.6783 22.6556 14.3424 22.3014 14.929 21.8809C15.5156 21.4603 16.0911 21.0397 16.6555 20.6191C17.22 20.1986 17.8121 19.8444 18.4319 19.5566C19.0517 19.2689 19.6493 19.125 20.2249 19.125C22.1064 19.125 23.6559 19.623 24.8733 20.6191L23.4124 14.875Z" fill="#C4C4C4"/>
</g>
<defs>
<clipPath id="clip0_83141_935">
<rect width="31.95" height="34" fill="white"/>
</clipPath>
</defs>
</svg>
