<svg width="231" height="84" viewBox="0 0 231 84" fill="none" xmlns="http://www.w3.org/2000/svg">
<rect y="81.0729" width="230.033" height="2.00226" fill="#EB5757"/>
<rect y="0.982452" width="230.033" height="2.00226" fill="#EB5757"/>
<path d="M66.2031 61.4922C64.125 61.4922 62.125 61.1875 60.2031 60.5781C58.2812 59.9688 56.4453 59.0312 54.6953 57.7656V50.4766H58.2812L59.0547 55.8438C60.0703 56.4688 61.1719 56.9531 62.3594 57.2969C63.5469 57.6406 64.8281 57.8125 66.2031 57.8125C67.7656 57.8125 69.0859 57.5781 70.1641 57.1094C71.2578 56.625 72.0938 55.9609 72.6719 55.1172C73.25 54.2734 73.5391 53.2891 73.5391 52.1641C73.5391 51.1172 73.2891 50.1953 72.7891 49.3984C72.2891 48.6016 71.4609 47.9062 70.3047 47.3125C69.1641 46.7031 67.6016 46.1719 65.6172 45.7188C63.2734 45.1719 61.2891 44.4453 59.6641 43.5391C58.0547 42.6172 56.8281 41.5078 55.9844 40.2109C55.1562 38.8984 54.7422 37.3984 54.7422 35.7109C54.7422 33.9297 55.2109 32.3359 56.1484 30.9297C57.1016 29.5234 58.4219 28.4141 60.1094 27.6016C61.7969 26.7891 63.7656 26.3828 66.0156 26.3828C68.4062 26.3828 70.5156 26.75 72.3438 27.4844C74.1875 28.2031 75.7031 29.0781 76.8906 30.1094V36.9297H73.3047L72.5312 32.0547C71.8281 31.4922 70.9531 31.0234 69.9062 30.6484C68.8594 30.2734 67.5625 30.0859 66.0156 30.0859C64.7031 30.0859 63.5469 30.3203 62.5469 30.7891C61.5469 31.2422 60.7656 31.8828 60.2031 32.7109C59.6406 33.5391 59.3594 34.5156 59.3594 35.6406C59.3594 36.625 59.6094 37.4844 60.1094 38.2188C60.625 38.9531 61.4531 39.6016 62.5938 40.1641C63.75 40.7109 65.2891 41.2266 67.2109 41.7109C70.8047 42.6016 73.5234 43.9219 75.3672 45.6719C77.2266 47.4062 78.1562 49.5547 78.1562 52.1172C78.1562 53.9453 77.6641 55.5703 76.6797 56.9922C75.6953 58.3984 74.3047 59.5 72.5078 60.2969C70.7266 61.0938 68.625 61.4922 66.2031 61.4922ZM90.9531 61.3984C89.0781 61.3984 87.5859 60.8516 86.4766 59.7578C85.3828 58.6484 84.8359 56.8828 84.8359 54.4609V39.0625H80.8281V35.6406H84.8359V29.5234H89.4531V35.6406H94.9609V39.0625H89.4531V54.4609C89.4531 55.6797 89.6953 56.5781 90.1797 57.1562C90.6641 57.7344 91.3125 58.0234 92.125 58.0234C92.6719 58.0234 93.2812 57.9766 93.9531 57.8828C94.625 57.7734 95.1484 57.6797 95.5234 57.6016L96.1562 60.625C95.4844 60.8281 94.6562 61.0078 93.6719 61.1641C92.7031 61.3203 91.7969 61.3984 90.9531 61.3984ZM98.9453 61V58.0469L102.766 57.3906V39.2734L98.9453 38.6172V35.6406H107.383V57.3906L111.203 58.0469V61H98.9453ZM102.531 29.3828V24.4375H107.383V29.3828H102.531ZM114.156 61V58.0469L117.977 57.3906V28.0703L114.156 27.4141V24.4375H122.594V57.3906L126.414 58.0469V61H114.156ZM129.484 61V58.0469L133.305 57.3906V28.0703L129.484 27.4141V24.4375H137.922V57.3906L141.742 58.0469V61H129.484ZM156.039 61.4922C153.695 61.4922 151.672 60.9453 149.969 59.8516C148.281 58.7422 146.977 57.2188 146.055 55.2812C145.133 53.3281 144.672 51.1016 144.672 48.6016V48.0859C144.672 45.5859 145.133 43.3672 146.055 41.4297C146.977 39.4766 148.281 37.9453 149.969 36.8359C151.672 35.7266 153.68 35.1719 155.992 35.1719C158.336 35.1719 160.352 35.7266 162.039 36.8359C163.742 37.9453 165.055 39.4688 165.977 41.4062C166.898 43.3438 167.359 45.5703 167.359 48.0859V48.6016C167.359 51.1172 166.898 53.3516 165.977 55.3047C165.055 57.2422 163.75 58.7578 162.062 59.8516C160.375 60.9453 158.367 61.4922 156.039 61.4922ZM156.039 57.8828C157.508 57.8828 158.734 57.4844 159.719 56.6875C160.719 55.875 161.469 54.7734 161.969 53.3828C162.484 51.9766 162.742 50.3828 162.742 48.6016V48.0859C162.742 46.3047 162.484 44.7188 161.969 43.3281C161.469 41.9219 160.719 40.8203 159.719 40.0234C158.719 39.2109 157.477 38.8047 155.992 38.8047C154.523 38.8047 153.289 39.2109 152.289 40.0234C151.289 40.8203 150.539 41.9219 150.039 43.3281C149.539 44.7188 149.289 46.3047 149.289 48.0859V48.6016C149.289 50.3828 149.539 51.9766 150.039 53.3828C150.539 54.7734 151.289 55.875 152.289 56.6875C153.305 57.4844 154.555 57.8828 156.039 57.8828Z" fill="white"/>
<ellipse cx="3.01354" cy="3.00339" rx="3.01354" ry="3.00339" transform="matrix(1 0 0 -1 207.934 45.0322)" fill="#999591"/>
<ellipse cx="3.01354" cy="3.00339" rx="3.01354" ry="3.00339" transform="matrix(1 0 0 -1 16.0722 45.0322)" fill="#999591"/>
</svg>
