<svg width="34" height="34" viewBox="0 0 34 34" fill="none" xmlns="http://www.w3.org/2000/svg">
<path d="M29.7498 17C26.9165 17 25.4998 12.75 21.2498 12.75C16.9998 12.75 16.9998 15.5833 16.9998 15.5833C16.9998 15.5833 16.9998 12.75 12.7498 12.75C8.49984 12.75 7.08317 17 4.24984 17C2.83317 17 1.4165 15.5833 1.4165 15.5833C1.4165 15.5833 2.83317 22.6667 8.49984 22.6667C15.5832 22.6667 16.9998 18.4167 16.9998 18.4167C16.9998 18.4167 18.4165 22.6667 25.4998 22.6667C31.1665 22.6667 32.5832 15.5833 32.5832 15.5833C32.5832 15.5833 31.1665 17 29.7498 17Z" fill="#C4C4C4"/>
</svg>
