<svg width="34" height="34" viewBox="0 0 34 34" fill="none" xmlns="http://www.w3.org/2000/svg">
<path d="M13.3838 4.172C13.4037 3.81031 13.5614 3.46999 13.8245 3.221C14.0876 2.972 14.4361 2.83325 14.7983 2.83325H19.2013C19.5636 2.83325 19.9121 2.972 20.1751 3.221C20.4382 3.46999 20.596 3.81031 20.6159 4.172L21.167 14.0887C21.1776 14.281 21.1488 14.4734 21.0825 14.6543C21.0162 14.8351 20.9137 15.0005 20.7813 15.1404C20.649 15.2803 20.4894 15.3917 20.3125 15.4678C20.1356 15.544 19.945 15.5833 19.7524 15.5833H14.2473C14.0546 15.5833 13.8641 15.544 13.6872 15.4678C13.5102 15.3917 13.3507 15.2803 13.2183 15.1404C13.0859 15.0005 12.9835 14.8351 12.9172 14.6543C12.8509 14.4734 12.8221 14.281 12.8327 14.0887L13.3838 4.172V4.172Z" stroke="#C4C4C4" stroke-width="2.83333"/>
<path d="M7.7915 19.8333C7.7915 18.7061 8.23927 17.6251 9.0363 16.828C9.83333 16.031 10.9143 15.5833 12.0415 15.5833H21.9582C23.0853 15.5833 24.1663 16.031 24.9634 16.828C25.7604 17.6251 26.2082 18.7061 26.2082 19.8333V29.0416C26.2082 29.6052 25.9843 30.1457 25.5858 30.5442C25.1873 30.9427 24.6468 31.1666 24.0832 31.1666H9.9165C9.35292 31.1666 8.81242 30.9427 8.4139 30.5442C8.01539 30.1457 7.7915 29.6052 7.7915 29.0416V19.8333Z" stroke="#C4C4C4" stroke-width="2.83333"/>
<path d="M17 25.5C18.1736 25.5 19.125 24.5486 19.125 23.375C19.125 22.2014 18.1736 21.25 17 21.25C15.8264 21.25 14.875 22.2014 14.875 23.375C14.875 24.5486 15.8264 25.5 17 25.5Z" fill="#C4C4C4"/>
</svg>
