<svg width="34" height="34" viewBox="0 0 34 34" fill="none" xmlns="http://www.w3.org/2000/svg">
<path d="M14.7226 13.267C14.8181 13.1717 14.9475 13.1182 15.0825 13.1182C15.2174 13.1182 15.3468 13.1717 15.4423 13.267L20.7328 18.5576C20.828 18.6532 20.8814 18.7825 20.8814 18.9174C20.8814 19.0523 20.828 19.1817 20.7328 19.2773L12.5778 27.4323C11.7786 28.2186 10.701 28.6572 9.57986 28.6527C8.4587 28.6481 7.38475 28.2007 6.59196 27.4079C5.79917 26.6151 5.35177 25.5412 5.3472 24.42C5.34264 23.2989 5.78128 22.2213 6.56759 21.4221L14.7226 13.267Z" stroke="#C4C4C4" stroke-width="2.83333"/>
<path d="M30.1616 15.8595C30.2205 15.8007 30.2672 15.7308 30.2991 15.654C30.331 15.5771 30.3474 15.4947 30.3474 15.4115C30.3474 15.3282 30.331 15.2458 30.2991 15.169C30.2672 15.0921 30.2205 15.0223 30.1616 14.9634L19.0359 3.83906C18.9171 3.72059 18.7563 3.65405 18.5885 3.65405C18.4208 3.65405 18.26 3.72059 18.1412 3.83906L17.5866 4.39298C14.2674 7.71223 14.2674 13.0941 17.5866 16.4134C20.9066 19.7334 26.2885 19.7334 29.6077 16.4134L30.1616 15.8595V15.8595Z" stroke="#C4C4C4" stroke-width="2.83333"/>
<path d="M14.0809 19.9189L13.0786 20.9205" stroke="#C4C4C4" stroke-width="2.83333" stroke-linecap="round" stroke-linejoin="round"/>
<path d="M19.5903 12.4062L21.5935 14.4094" stroke="#C4C4C4" stroke-width="2.83333" stroke-linecap="round" stroke-linejoin="round"/>
</svg>
